<svg width="2246" height="1024" xmlns="http://www.w3.org/2000/svg" xml:space="preserve" version="1.1">
 <g>
  <title>Layer 1</title>
  <path id="svg_1" fill="#00a1d6" d="m2079.81005,913.56618c-10.01309,0 -18.55461,0.79976 -26.93617,-0.15996c-16.98707,-1.95143 -33.97413,-1.56754 -50.99318,-2.07939c-10.97282,-0.28792 -10.65291,-0.28792 -11.58064,-10.90883c-2.71921,-32.40659 -5.69434,-64.78118 -8.6055,-97.15577c-2.52726,-28.43973 -4.92657,-56.91146 -7.70976,-85.3192c-2.52726,-26.04043 -5.56638,-52.01688 -8.31758,-78.02533c-2.62324,-24.44089 -5.05453,-48.91378 -7.77374,-73.32269a12681.11455,12681.11455 0 0 0 -10.6849,-92.13322c-3.29504,-27.12812 -6.55809,-54.32021 -10.20503,-81.41634a20559.27296,20559.27296 0 0 0 -17.5309,-125.97939c-6.39815,-44.723 -14.07591,-89.22207 -22.10558,-133.65715c-1.43958,-7.96569 -1.24764,-8.2536 6.36615,-9.53323c31.6708,-5.40643 63.50154,-10.01309 95.71618,-9.3093c3.48699,0.09598 7.00597,0.15996 10.46096,0.60783c5.66236,0.70379 8.6055,3.45499 8.92541,10.04508c1.11967,22.96932 2.71921,45.93865 4.41471,68.87598c2.71921,37.58908 5.66236,75.17815 8.47754,112.73524c1.79148,24.18497 3.32703,48.30596 5.1505,72.42695c2.91116,38.77273 5.98227,77.51347 8.92541,116.2862c1.79148,23.70511 3.35902,47.47421 5.1825,71.17932c2.78319,34.80588 5.8223,69.57977 8.63748,104.35367c1.79148,22.13756 3.39102,44.30712 5.27847,66.44469c2.78319,32.79047 5.79032,65.58094 8.63749,98.37141c2.14338,25.59256 4.09481,51.24911 6.27018,77.67343zm-1226.13965,-798.6479c4.63865,0 11.64461,-0.51185 18.5546,0.12796c8.79745,0.79977 10.49295,3.07111 11.0368,11.90055c2.52726,40.37226 4.89457,80.77652 7.58179,121.18078c2.94315,43.57133 6.17421,87.07869 9.40527,130.58605c2.97513,39.95638 5.95027,79.91277 9.14934,119.86916c3.48699,43.89124 7.35786,87.71851 10.87684,131.60975c2.65523,33.62223 4.92657,67.24446 7.67777,100.89868c2.62323,31.22292 5.69434,62.38187 8.50952,93.5728c2.39931,26.8402 4.8306,53.71239 7.16592,80.58458c0.73579,8.50953 0.12796,9.05337 -9.05337,8.82944c-24.02502,-0.57584 -47.92207,-3.39102 -71.94709,-2.71921c-5.5024,0.15995 -7.10193,-2.36732 -8.02966,-7.5818c-1.98343,-11.3567 -1.66352,-22.90534 -2.87917,-34.39001c-3.29504,-30.35917 -5.18249,-60.84631 -7.96568,-91.26947c-2.49528,-27.63997 -5.5024,-55.21595 -8.34958,-82.82393c-2.52726,-25.24066 -5.02254,-50.48133 -7.70976,-75.75398c-2.68721,-24.7928 -5.53439,-49.61758 -8.34957,-74.44237c-2.59125,-22.84136 -5.11851,-45.68272 -7.86971,-68.52408c-4.06282,-33.46228 -8.09365,-66.92455 -12.50837,-100.32285c-4.06282,-30.64709 -8.66948,-61.19821 -12.98822,-91.81332c-5.88629,-41.58791 -12.50837,-83.07985 -19.83424,-124.41184a1393.96288,1393.96288 0 0 0 -5.31045,-28.02385c-0.95973,-4.70264 -0.09598,-7.42185 5.27846,-8.15763c14.13989,-1.88745 28.24779,-4.8306 42.45166,-6.2062c14.20388,-1.31162 28.40775,-3.96685 45.1069,-2.71921zm1006.0756,403.33878c27.06414,0 27.70395,0.19195 32.05469,24.53687c5.34245,30.03927 9.08536,60.33447 12.63633,90.62966c3.74291,32.27862 7.51781,64.55724 10.97281,96.86785c2.78319,26.00844 5.11851,52.08086 7.74175,78.0893c2.7512,27.25608 5.66235,54.41619 8.50952,81.64028c1.56755,15.38753 3.03912,30.77505 4.79861,46.13059c0.51185,4.44671 -0.83176,6.81402 -5.21449,7.32587c-9.24531,1.05569 -18.42664,2.27134 -27.63996,3.26305c-16.89109,1.82347 -33.81418,3.61495 -50.73726,5.1825c-8.73346,0.79976 -9.30929,0.3199 -10.94082,-8.12564c-14.84368,-76.61773 -29.71936,-153.17149 -44.43508,-229.82121c-9.78916,-50.96119 -19.32239,-101.95437 -28.9196,-152.91556a805.52589,805.52589 0 0 1 -3.58296,-21.08187c-0.63981,-4.03083 0.44787,-6.62208 5.02254,-7.70976c30.48714,-7.13393 61.29419,-12.63633 89.73392,-14.01193zm-1137.07753,0c28.95158,0 28.82362,0.09597 33.30232,26.36034c6.90999,40.66018 11.80457,81.5443 16.18729,122.55638c4.28676,39.79644 8.9574,79.56088 13.14818,119.35731c2.84718,27.22409 5.08653,54.51216 7.74175,81.70426c1.88745,19.35437 4.1268,38.64477 6.17421,57.96715c0.25593,2.36731 0.38389,4.73463 0.54384,7.13393c0.41588,9.46925 0,10.23702 -9.11735,11.16475c-18.07475,1.88745 -36.18148,3.455 -54.25623,5.24648c-6.5581,0.63981 -13.0842,1.59953 -19.57831,2.23935c-8.63749,0.79977 -8.92541,0.76778 -10.62091,-7.96569c-6.07824,-30.67908 -11.96453,-61.42215 -17.9148,-92.10123c-14.26785,-73.89852 -28.69566,-147.73306 -42.86754,-221.63159c-5.66235,-29.55941 -10.52494,-59.24678 -16.09132,-88.83818c-1.0237,-5.40643 -0.25593,-7.93369 5.34244,-9.24531c30.19923,-7.03796 60.5904,-12.54036 88.00643,-13.94795zm382.12894,309.86195l0,124.02795c0,1.18366 -0.12796,2.3993 0.03199,3.58296c0.60782,6.01425 -1.59953,8.66948 -7.80573,8.41356c-8.15763,-0.3519 -16.25128,-0.12797 -24.40891,0.06398c-17.01905,0.3199 -34.07009,-0.3519 -51.05716,1.59953c-9.40526,1.08769 -9.21332,0.51185 -10.14105,-9.40526c-2.78319,-31.22293 -5.82231,-62.41387 -8.66948,-93.63679c-2.62324,-28.82362 -4.99055,-57.71123 -7.67777,-86.53485c-2.71921,-29.65538 -5.75832,-59.21479 -8.50953,-88.83818c-1.88745,-19.77026 -3.55096,-39.50852 -5.21448,-59.27878c-2.17537,-25.72052 -4.19078,-51.40905 -6.46212,-77.12958c-0.95972,-10.84485 -0.15996,-12.3804 10.58892,-13.50008a531.87742,531.87742 0 0 1 83.52772,-2.59124c6.94199,0.38388 13.85198,1.72749 20.57003,3.35902c8.47753,2.01541 9.40526,3.26305 9.85313,12.12448c0.92773,17.85081 1.85546,35.70162 2.33532,53.58442c0.54385,19.86623 0.09598,39.76445 0.83176,59.63067c1.85546,54.80008 1.56755,109.66413 2.20736,164.52819zm1134.8062,5.63036l0,117.43787c0,1.98342 -0.06398,3.96685 0.03199,5.98226c0.41588,5.15051 -1.98343,6.97398 -6.878,6.94198c-12.02851,-0.09597 -24.02502,0 -36.02153,0.15996c-13.56406,0.12796 -27.09613,0.06398 -40.6282,1.53555c-8.9254,1.0237 -8.98938,0.3519 -9.78915,-8.50953c-3.67893,-40.66018 -7.54981,-81.32036 -11.26073,-122.04453c-3.39101,-37.52509 -6.5261,-75.08217 -9.9811,-112.63926c-3.55097,-38.74074 -7.42184,-77.38551 -10.90883,-116.09426c-1.7275,-19.38637 -3.16708,-38.77273 -4.60666,-58.1591c-0.57583,-8.44554 0.3519,-9.94911 9.88513,-10.71688c16.57118,-1.31162 33.07839,-3.55097 49.77753,-3.26305c16.63517,0.3199 33.30232,-0.60783 49.84152,2.55925c14.01193,2.68722 14.71572,3.48699 15.54748,18.45864c2.3993,44.05119 1.66352,88.23035 3.23106,132.28155c1.59953,46.89837 0.47986,93.79674 1.75949,146.06955zm-408.1054,-528.61437c9.78916,0.57583 17.49892,0.09597 25.17669,1.79148c4.89457,1.11967 7.35786,3.32703 7.83772,8.57351c2.30333,25.24066 4.7986,50.51332 7.32587,75.78597c2.01541,20.50604 4.15879,41.01208 6.23819,61.51812l0.19194,1.18366c1.66352,12.92424 1.27963,13.27614 -11.29272,13.97994c-11.19674,0.60782 -22.3615,1.59953 -33.55824,2.27134c-7.35787,0.44787 -9.69319,1.6955 -10.90883,-9.02138c-4.19079,-37.81301 -9.05337,-75.53005 -13.69203,-113.31107a1185.0316,1185.0316 0 0 0 -4.28675,-31.79876c-0.92773,-5.98226 1.40759,-9.2773 7.00596,-9.75716c7.35787,-0.67181 14.71573,-0.86375 19.9622,-1.21565zm-1133.3986,0.15995c7.5498,0.41588 15.32354,-0.15995 22.93733,1.59954c4.35074,0.99171 6.5581,2.81518 6.97397,7.77374c0.92773,11.83656 2.7512,23.64113 3.87088,35.47769c3.55097,36.30945 6.90999,72.65089 10.23702,108.99232c0.7038,7.90171 0.54385,8.06166 -6.84601,8.6055c-13.11618,0.95972 -26.26436,1.91944 -39.41254,2.46329c-7.64578,0.35189 -8.6055,-0.57584 -9.56522,-8.38157c-3.32703,-26.74423 -6.46212,-53.52044 -9.66119,-80.29666c-2.59125,-22.07359 -4.76662,-44.14717 -7.90171,-66.15678c-0.86375,-6.07823 1.11968,-7.74175 5.98226,-8.73346c7.70976,-1.56754 15.45151,-1.05569 23.38521,-1.34361zm399.148,100.00294c0,23.00132 0.06398,45.97064 -0.032,69.00395c0,10.33299 -0.12796,10.39697 -10.39697,10.26901a324.28975,324.28975 0 0 1 -36.98126,-1.91944c-7.93369,-0.99171 -8.09364,-0.73579 -8.31758,-9.14934c-0.79977,-28.11983 -1.63152,-56.23966 -2.20736,-84.35948c-0.41588,-19.03447 -0.63981,-38.00496 -1.79148,-57.03943c-0.60782,-9.82114 -0.06398,-9.91711 9.37328,-10.04508c13.91596,-0.15995 27.79992,0.47986 41.6199,2.59125c8.31759,1.27963 8.70147,1.27963 8.73346,10.49295c0.06399,23.3852 0.06399,46.77041 0.06399,70.1876l-0.06399,0l0.00001,-0.03199zm1135.38203,0.60782c0,23.03331 0.06398,46.03463 -0.032,69.03594c0,9.66119 -0.15995,9.72517 -9.85313,9.66119a505.32514,505.32514 0 0 1 -38.13292,-1.79148c-6.30217,-0.47986 -8.15763,-3.13509 -7.74175,-8.86142c0.06398,-0.79977 0,-1.59954 0,-2.3993c-0.95972,-44.4031 -1.91944,-88.7742 -2.81518,-133.1773c-0.03199,-2.36731 -0.15996,-4.73462 -0.06398,-7.13393c0.12796,-8.95739 0.15995,-9.18133 9.14934,-9.11735c12.3804,0.06398 24.66483,0.7038 37.01324,1.91945c15.06762,1.50356 12.41239,3.35902 12.47638,15.25956c0.06398,22.16956 0.03199,44.4031 0,66.60464zm-1565.593,54.00031c0.28791,12.63633 0.28791,12.60434 -11.80457,15.54748c-8.22161,2.01542 -16.44322,4.22277 -24.72882,6.04624c-7.06994,1.59954 -8.31758,0.7038 -9.53323,-6.23818c-8.44554,-47.09032 -16.8591,-94.21262 -25.24066,-141.33493c-1.69551,-9.75716 -1.24764,-10.36498 8.34957,-12.06049c11.80457,-2.0794 23.57715,-4.1268 35.38172,-5.95027c7.51781,-1.18366 8.47754,-0.76778 9.9811,7.51781c2.97513,16.73114 5.79032,33.52626 7.99767,50.38536c3.42301,26.68025 6.23819,53.45646 9.3093,80.1687c0.25593,1.95143 0.19194,3.96685 0.28792,5.91828zm1064.13873,-136.69627c15.45151,-2.52727 31.03098,-5.08652 46.61045,-7.54981c5.59838,-0.86375 7.29388,2.65523 8.02967,7.64578c2.65523,18.42664 5.98226,36.72533 8.15763,55.18396c3.19907,26.74423 7.5818,53.36049 8.41355,80.32866c0.06399,2.7512 0.032,5.56638 0.09598,8.31758c0.15995,4.28675 -1.98343,6.49411 -5.95027,7.42184c-10.55694,2.36731 -21.11387,4.73463 -31.63881,7.26189c-5.05453,1.21565 -6.75004,-0.92773 -7.5818,-5.8543c-3.16708,-18.74655 -6.81402,-37.39713 -10.04508,-56.0797c-5.47041,-30.77505 -10.78086,-61.5821 -16.09132,-92.38915c-0.12796,-1.11967 0,-2.30333 0,-4.28675zm-710.64147,108.0326c-0.44787,16.37924 0.54384,30.64709 -1.69551,44.91495c-0.6718,4.51069 -1.98342,7.42184 -6.84601,7.83772c-10.42897,0.86375 -20.82594,1.69551 -31.19093,2.7512c-5.02254,0.54384 -6.43013,-1.63153 -7.26189,-6.55809c-2.33532,-14.55577 -1.91944,-29.30349 -3.32703,-43.92324c-2.65523,-27.60797 -3.77491,-55.4079 -5.56639,-83.11184c-0.44787,-6.75004 -1.11967,-13.4361 -1.66351,-20.18614c-0.28792,-3.7749 1.21564,-5.88629 5.24647,-6.04624c13.50008,-0.54384 26.93617,-3.00713 40.50023,-2.52727c7.9337,0.28792 8.6055,0.79977 9.18133,8.79745c0.3519,5.53439 0.25593,11.13276 0.38389,16.69914l2.23935,81.35236zm1134.90217,-15.86739c0,19.06646 0.22393,38.13292 -0.03199,57.19938c-0.15996,9.91712 -1.27963,10.78087 -10.65291,11.64461c-9.2773,0.86375 -18.49062,1.56755 -27.73593,2.55926c-5.21449,0.54384 -7.64578,-0.99171 -7.96569,-6.97397c-1.34361,-25.33664 -3.16708,-50.67328 -4.92657,-75.97792c-1.3756,-20.9859 -2.94314,-41.93981 -4.41471,-62.89372c-0.15996,-2.39931 -0.032,-4.79861 -0.19195,-7.16592c-0.22393,-4.19078 1.05569,-6.65407 5.75833,-6.81402c13.11619,-0.44787 26.1364,-2.97514 39.34856,-2.49527c8.06166,0.28791 8.18962,0.41587 8.79744,8.79744c1.95144,27.32006 2.14338,54.7041 2.01542,82.12013zm-1527.14018,340.79696c16.57119,18.2347 17.40295,39.82842 11.93254,62.41386c-5.50241,22.58543 -18.04276,41.20402 -33.23834,57.90317c-25.49659,27.89589 -56.30364,48.49791 -89.06212,65.99682c-56.39961,30.13524 -116.19023,50.16142 -178.5721,61.99798c-44.88296,8.47754 -90.05383,15.00364 -135.70456,17.49892c-13.91596,0.76777 -27.79993,1.40759 -41.71588,1.31161c-10.07707,0 -20.18613,0.28792 -30.23121,-0.06398c-8.54152,-0.3199 -9.78916,-1.79148 -10.49295,-10.71688c-2.59125,-32.0227 -4.79861,-64.07738 -7.64578,-96.10007c-3.32704,-37.10922 -7.2299,-74.18644 -10.81286,-111.29566c-2.62324,-26.8402 -4.89458,-53.74438 -7.77374,-80.5206c-3.32703,-31.54283 -7.06995,-63.02168 -10.71689,-94.56451c-3.32703,-29.11154 -6.5261,-58.28706 -10.04508,-87.43059c-3.93485,-32.27862 -7.99767,-64.49326 -12.31642,-96.7079a8228.96846,8228.96846 0 0 0 -13.21216,-92.99697a5984.50075,5984.50075 0 0 0 -24.31293,-152.62764a3243.82526,3243.82526 0 0 0 -23.67312,-123.74004c-1.15167,-5.5024 0.51185,-7.70976 5.34245,-9.72518c46.29054,-19.19442 92.42114,-38.74074 138.67969,-58.03113c8.6055,-3.58296 17.43494,-6.59008 26.58428,-8.28559c6.33416,-1.18366 7.96568,0.12796 7.77374,6.49411c-0.47986,16.28327 0.19194,32.63052 -1.40759,48.8498a161.39309,161.39309 0 0 0 -0.63982,13.0842c-0.73578,58.38303 -1.43958,116.79806 0.09597,175.21308c1.34361,51.18512 4.03083,102.33826 7.00597,153.49139c2.33532,40.37227 5.69434,80.74454 9.14934,121.05282c3.39101,39.50852 7.51781,78.95305 11.38869,118.46157c0.73578,7.51782 1.40759,8.22161 9.94911,7.06995a381.32918,381.32918 0 0 1 50.83322,-4.19078c52.88064,-0.12797 104.89752,7.13392 156.33857,19.32238c45.01092,10.6849 88.80619,24.92076 130.77799,44.81898c20.79396,9.85313 40.69218,21.24182 58.8309,35.70162c6.17421,4.86259 11.67661,10.46096 16.89109,16.31526zm1126.84052,-9.59721c20.47405,17.94678 27.92788,39.92439 22.10557,67.11649c-4.83059,22.42548 -15.77141,41.26801 -30.35918,58.12711c-23.41719,27.09612 -51.85692,47.69814 -82.63198,64.90913c-60.33447,33.78219 -124.60379,55.72781 -192.16815,68.39613a1151.08947,1151.08947 0 0 1 -111.45561,15.54748c-21.17785,1.82347 -42.45166,4.09481 -66.22075,2.62323l-27.76793,0c-5.40643,0 -8.47754,-1.6955 -8.92541,-8.12563c-2.04741,-28.08784 -4.41472,-56.14369 -6.94198,-84.19953c-2.68722,-29.62339 -5.66236,-59.24678 -8.47754,-88.87018c-2.55926,-27.22408 -4.92657,-54.51215 -7.70976,-81.73624c-2.55925,-25.65654 -5.5024,-51.24911 -8.28559,-76.87366c-2.59125,-24.05701 -5.08652,-48.11402 -7.9337,-72.13903c-3.423,-29.11154 -7.03795,-58.22308 -10.6529,-87.33462c-3.39101,-27.16011 -6.75004,-54.28822 -10.36499,-81.41634a6133.57743,6133.57743 0 0 0 -12.15646,-87.14268c-5.69435,-37.65305 -11.80457,-75.17815 -17.81883,-112.76722a3259.14881,3259.14881 0 0 0 -29.11153,-158.99379c-0.44787,-2.33533 -0.67181,-4.73463 -1.3756,-7.00597c-1.66352,-5.11851 -0.06399,-7.83772 4.95855,-9.82114c49.16972,-19.22642 96.77188,-42.41967 146.38946,-60.71836c6.49411,-2.43129 13.05221,-5.1505 20.05817,-5.8543c6.30217,-0.63981 7.9017,0.38389 7.29388,7.10194c-3.32703,36.43741 -1.40759,73.06677 -3.13509,109.53617c-1.40759,29.75135 -1.24764,59.59868 0.25593,89.38202c0.3519,7.5498 0.63981,15.1316 0.57583,22.64942c-0.38389,35.7656 1.50356,71.49922 3.32703,107.20084c2.33532,47.18629 5.75833,94.2766 9.24532,141.39891c2.52726,34.00612 5.8223,67.94825 9.02137,101.92238c1.69551,18.58659 3.51898,37.1412 5.82231,55.63183c1.24764,10.20503 1.75949,10.30101 11.77258,8.9574c17.65887,-2.39931 35.34973,-4.35074 53.20054,-4.09482c62.6378,0.79977 124.02795,10.6849 184.26645,27.86391c40.78814,11.58063 80.4886,26.04043 117.98171,46.29054a253.55831,253.55831 0 0 1 47.21828,32.43858zm-1446.45963,176.23678c23.16127,-11.06878 135.60859,-98.94724 144.534,-113.27908c-54.57614,-23.51317 -109.34422,-45.36282 -168.23911,-63.24562l23.70511,176.5247zm1277.19682,-107.52075c2.87916,-3.1031 2.55925,-5.5024 -1.34361,-7.2299c-7.77374,-3.55097 -15.4835,-7.32587 -23.35321,-10.55693c-42.0038,-17.17901 -84.19953,-33.81418 -127.48295,-47.37823c-3.77491,-1.15167 -7.64578,-3.77491 -12.47638,-1.53556l23.32122,173.45359c3.455,0.76778 4.79861,-0.83176 6.33416,-1.91944c39.31658,-28.85562 78.88908,-57.35933 116.63811,-88.39031c6.36615,-5.1825 12.66831,-10.39698 18.36266,-16.44322z"/>
 </g>

</svg>